<?xml version="1.0" standalone="no"?>
<!DOCTYPE svg PUBLIC "-//W3C//DTD SVG 20010904//EN"
 "http://www.w3.org/TR/2001/REC-SVG-20010904/DTD/svg10.dtd">
<svg version="1.0" xmlns="http://www.w3.org/2000/svg"
 width="1000.000000pt" height="300.000000pt" viewBox="0 0 1000.000000 300.000000"
 preserveAspectRatio="xMidYMid meet">

<g transform="translate(0.000000,300.000000) scale(0.100000,-0.100000)"
fill="#000000" stroke="none">
<path d="M1245 2688 c-22 -5 -67 -16 -100 -24 -91 -23 -149 -54 -153 -83 -2
-13 12 -56 32 -96 34 -68 79 -120 150 -171 42 -30 29 -50 -41 -64 -32 -7 -101
-32 -153 -57 -104 -50 -192 -128 -230 -203 -23 -44 -38 -49 -64 -21 -51 56
-114 48 -195 -25 -141 -127 -148 -239 -20 -320 22 -13 88 -36 147 -51 59 -14
112 -30 117 -34 6 -4 17 -25 24 -46 7 -21 29 -63 48 -94 l34 -55 -18 -65 c-22
-84 -22 -179 0 -213 10 -14 35 -37 57 -51 34 -21 52 -25 117 -25 43 0 123 10
178 21 123 26 104 26 205 1 117 -29 265 -44 395 -40 l109 3 10 34 c12 40 -4
127 -35 190 -11 23 -19 49 -17 56 2 8 30 36 62 62 33 27 89 85 125 130 37 45
72 84 79 87 7 3 52 -1 99 -9 171 -30 361 -12 478 45 148 72 217 220 182 390
-34 162 -61 230 -133 330 -69 96 -185 168 -310 190 -75 13 -210 9 -299 -10
-125 -26 -118 -27 -193 28 -114 83 -292 162 -412 184 -81 14 -229 18 -275 6z
m350 -99 c140 -44 254 -106 353 -191 36 -31 66 -35 116 -14 61 25 171 39 278
34 112 -5 168 -24 255 -87 74 -54 159 -190 182 -290 10 -46 3 -60 -54 -97 -53
-35 -52 -50 9 -110 51 -50 54 -56 45 -82 -13 -39 -74 -96 -134 -126 -125 -62
-379 -62 -570 0 -78 26 -120 50 -171 101 -20 20 -28 22 -39 13 -38 -31 10
-100 100 -145 30 -16 55 -34 55 -41 0 -34 -154 -191 -217 -221 -29 -15 -33
-14 -60 4 -45 33 -113 65 -182 88 -69 23 -86 39 -49 48 13 4 43 21 66 39 151
116 155 336 10 510 -106 127 -290 135 -483 21 -32 -19 -51 -37 -53 -51 -6 -37
26 -38 92 -4 135 69 243 84 323 44 84 -43 163 -177 163 -275 0 -69 -39 -149
-91 -187 -61 -43 -157 -78 -240 -85 -112 -9 -119 -12 -119 -40 0 -33 21 -40
135 -48 127 -9 229 -33 310 -72 104 -51 159 -109 190 -203 28 -87 29 -86 -153
-79 -198 8 -335 41 -492 119 -88 45 -119 67 -191 138 -88 88 -145 172 -168
250 -7 25 -20 63 -29 85 -10 26 -15 73 -15 135 1 81 5 104 27 154 54 118 192
220 352 259 100 25 229 40 260 32 16 -5 114 -9 218 -9 169 -1 190 1 200 17 33
52 -74 78 -316 75 l-157 -1 -65 32 c-100 49 -189 137 -211 209 -5 19 -1 25 32
38 76 33 130 42 258 43 118 1 137 -2 230 -30z m-960 -667 c6 -4 23 -22 38 -40
26 -32 27 -38 27 -144 l0 -111 -42 7 c-72 11 -132 35 -171 67 -29 24 -37 37
-37 64 0 28 11 46 63 99 61 64 93 79 122 58z m322 -702 c25 -22 66 -53 92 -70
86 -55 93 -62 82 -73 -6 -6 -53 -11 -111 -11 -90 -1 -101 1 -122 22 -19 19
-23 33 -22 82 1 51 14 90 31 90 3 0 25 -18 50 -40z"/>
<path d="M1165 2556 c-28 -20 -11 -48 58 -93 104 -68 176 -97 313 -127 80 -18
249 -21 288 -6 28 10 35 43 14 57 -7 4 -70 8 -139 9 -182 2 -290 32 -429 119
-36 23 -70 44 -76 48 -6 3 -19 1 -29 -7z"/>
<path d="M2416 2178 c-23 -36 -29 -74 -16 -113 21 -63 78 -75 110 -22 23 37
25 74 8 114 -16 35 -26 43 -60 43 -18 0 -33 -8 -42 -22z"/>
<path d="M3640 2501 c-25 -15 -80 -50 -122 -76 l-78 -48 0 -453 c0 -543 4
-572 96 -719 144 -231 451 -306 684 -168 171 101 263 269 264 478 0 163 -48
278 -164 395 -148 149 -368 193 -549 109 -24 -11 -47 -17 -52 -12 -5 5 -10
123 -11 262 -2 159 -7 256 -13 258 -5 1 -30 -10 -55 -26z m455 -761 c83 -57
119 -128 119 -231 -3 -260 -321 -357 -459 -139 -37 58 -51 141 -35 203 17 66
59 129 113 166 52 35 74 41 155 36 49 -3 72 -11 107 -35z"/>
<path d="M6545 2450 l-110 -67 -3 -698 c-1 -516 1 -701 9 -712 9 -10 39 -13
133 -11 l121 3 3 255 c2 140 0 490 -4 778 -6 474 -8 522 -23 521 -9 -1 -65
-31 -126 -69z"/>
<path d="M7925 2507 c-88 -51 -201 -122 -207 -131 -4 -6 -8 -93 -8 -193 0
-208 2 -203 -83 -163 -179 83 -398 39 -548 -110 -172 -170 -213 -428 -103
-657 40 -83 143 -187 228 -228 295 -146 620 0 731 328 20 60 34 404 35 855 0
330 1 325 -45 299z m-372 -758 c56 -39 78 -63 105 -114 36 -71 36 -184 -1
-247 -53 -91 -128 -138 -221 -138 -119 0 -216 82 -246 209 -24 102 22 217 113
280 52 35 74 41 155 36 44 -3 73 -11 95 -26z"/>
<path d="M8275 2450 l-110 -67 -3 -706 -2 -707 22 -5 c13 -3 73 -5 133 -3
l110 3 3 145 c2 80 0 430 -3 778 -7 575 -9 632 -24 631 -9 -1 -65 -31 -126
-69z"/>
<path d="M6185 2254 c-11 -8 -66 -43 -123 -77 l-102 -62 2 -575 3 -575 125 0
125 0 3 644 c1 355 -1 648 -5 652 -5 4 -17 1 -28 -7z"/>
<path d="M4702 1728 c5 -356 6 -366 63 -479 114 -225 382 -335 621 -254 109
37 219 127 279 230 73 123 79 161 79 515 l1 315 -132 3 -133 3 0 -269 c0 -298
-8 -366 -50 -427 -55 -79 -121 -115 -214 -115 -56 0 -69 4 -122 38 -44 29 -66
52 -88 91 -26 49 -29 66 -37 195 -4 77 -8 219 -8 314 l-1 172 -131 0 -131 0 4
-332z"/>
<path d="M8652 1723 c3 -249 8 -347 18 -373 69 -182 184 -304 333 -355 108
-36 253 -33 351 8 56 24 76 22 76 -8 0 -66 -41 -176 -83 -222 -36 -41 -115
-73 -177 -73 -62 0 -141 32 -177 73 -28 31 -59 95 -69 142 l-9 40 -130 0 -130
0 2 -55 c6 -156 118 -335 258 -413 164 -92 354 -91 517 4 104 60 205 195 236
314 30 115 32 164 32 701 l0 554 -135 0 -135 0 0 -270 c0 -157 -5 -290 -11
-317 -20 -88 -50 -135 -118 -180 -59 -40 -67 -43 -131 -43 -64 0 -72 3 -130
43 -67 45 -98 92 -119 180 -7 29 -11 150 -11 317 l0 270 -131 0 -131 0 4 -337z"/>
</g>
</svg>
