<svg width="200" height="60" viewBox="0 0 200 60" fill="none" xmlns="http://www.w3.org/2000/svg">
<path d="M20 10 L20 50 L35 50 Q45 50 45 40 L45 30 Q45 20 35 20 L25 20 L25 30 L35 30 Q40 30 40 35 L40 40 Q40 45 35 45 L25 45 L25 15 L20 15 Z" fill="#2563eb"/>
<path d="M55 10 L55 50 L70 50 Q80 50 80 40 L80 20 Q80 10 70 10 L55 10 Z M60 15 L70 15 Q75 15 75 20 L75 40 Q75 45 70 45 L60 45 L60 15 Z" fill="#2563eb"/>
<path d="M90 10 L90 50 L120 50 L120 45 L95 45 L95 32.5 L115 32.5 L115 27.5 L95 27.5 L95 15 L120 15 L120 10 L90 10 Z" fill="#2563eb"/>
<path d="M130 10 L130 50 L160 50 L160 45 L135 45 L135 32.5 L155 32.5 L155 27.5 L135 27.5 L135 15 L160 15 L160 10 L130 10 Z" fill="#2563eb"/>
<circle cx="175" cy="30" r="15" fill="#f59e0b"/>
<path d="M170 25 L170 35 L180 30 Z" fill="white"/>
</svg>
